# xmcd
#
# Track frame offsets: 
#        150
#        15547
#        37220
#        53947
#        72612
#        98870
#        119781
#        133644
#        151417
#        167952
#        184227
#        203298
#        222309
#        238590
#        254531
#        269980
#        290608
#        310054
#
# Disc length: 4488 seconds
#
# Revision: 0
# Processed by: cddbd v1.5.2PL0 Copyright (c) Steve Scherf et al.
# Submitted via: ExactAudioCopyFreeDBPlugin 1.0
#
DISCID=21118612
DTITLE=中國音樂發燒天碟 - 中國音樂發燒天碟 之 二胡傳真 [Disc 2]
DYEAR=2005
DGENRE=中樂
TTITLE0=喜送公糧
TTITLE1=奔馳在千里草原
TTITLE2=山丹丹花開紅艷艷
TTITLE3=北風吹
TTITLE4=獨弦操
TTITLE5=光明行
TTITLE6=軍隊和老百姓
TTITLE7=好人一生平安
TTITLE8=血染的風彩
TTITLE9=在那桃花盛開的地方
TTITLE10=燭影搖江
TTITLE11=洪湖水浪打浪
TTITLE12=紫竹調
TTITLE13=渴望
TTITLE14=漁家姑娘在海邊
TTITLE15=小白菜
TTITLE16=走進新時代
TTITLE17=駝鈴
EXTD=
EXTT0=
EXTT1=
EXTT2=
EXTT3=
EXTT4=
EXTT5=
EXTT6=
EXTT7=
EXTT8=
EXTT9=
EXTT10=
EXTT11=
EXTT12=
EXTT13=
EXTT14=
EXTT15=
EXTT16=
EXTT17=
PLAYORDER=
